<svg width="23" height="23" viewBox="0 0 23 23" fill="none" xmlns="http://www.w3.org/2000/svg">
<path d="M21.5249 5.325C20.9413 4.55124 20.1423 3.96701 19.228 3.64556C18.8498 2.74917 18.1668 2.01537 17.2998 1.57392C16.4328 1.13247 15.4376 1.01179 14.4902 1.23323C13.5977 0.438869 12.4446 0 11.2498 0C10.055 0 8.90182 0.438869 8.00935 1.23323C7.06187 1.01179 6.06661 1.13244 5.19949 1.57386C4.33237 2.01529 3.64923 2.74906 3.27083 3.64547C2.35665 3.96695 1.55775 4.55123 0.974346 5.325C0.329358 6.18547 -0.0130634 7.23503 0.000381321 8.31032C0.0138261 9.3856 0.382383 10.4263 1.04868 11.2703C1.71498 12.1144 2.64165 12.7146 3.68443 12.9773C4.72722 13.2401 5.82762 13.1507 6.81435 12.7232C7.5164 14.475 7.87634 16.3451 7.87473 18.2323V21.4687C7.87504 21.7422 7.98379 22.0043 8.17712 22.1976C8.37045 22.3909 8.63258 22.4997 8.90599 22.5H13.5936C13.867 22.4997 14.1291 22.3909 14.3224 22.1976C14.5158 22.0043 14.6245 21.7422 14.6248 21.4687V18.2323C14.6232 16.3451 14.9832 14.475 15.6852 12.7232C16.6719 13.151 17.7725 13.2405 18.8154 12.9779C19.8583 12.7152 20.7851 12.115 21.4515 11.2708C22.1178 10.4266 22.4863 9.38581 22.4996 8.31041C22.5129 7.235 22.1702 6.18539 21.5249 5.325ZM13.8748 18.2323V21.4687C13.8747 21.5433 13.8451 21.6148 13.7923 21.6675C13.7396 21.7203 13.6681 21.7499 13.5936 21.75H8.90599C8.83142 21.7499 8.75992 21.7203 8.7072 21.6675C8.65447 21.6148 8.62481 21.5433 8.62474 21.4687V18.2323C8.62644 16.2229 8.238 14.2322 7.48097 12.3708C7.74976 12.2005 8.00122 12.0042 8.23173 11.7848L9.02862 13.6445L9.49798 14.8179C9.66466 15.2335 9.75012 15.6772 9.74975 16.125C9.74975 16.2245 9.78926 16.3198 9.85959 16.3902C9.92992 16.4605 10.0253 16.5 10.1248 16.5C10.2242 16.5 10.3196 16.4605 10.3899 16.3902C10.4603 16.3198 10.4998 16.2245 10.4998 16.125C10.5003 15.5818 10.3966 15.0436 10.1944 14.5394L9.76536 13.4668L10.275 11.0883C10.907 11.3039 11.5926 11.3039 12.2245 11.0883L12.7342 13.4668L12.3052 14.5394C12.103 15.0435 11.9993 15.5818 11.9998 16.125C11.9998 16.2245 12.0393 16.3198 12.1096 16.3902C12.1799 16.4605 12.2753 16.5 12.3748 16.5C12.4742 16.5 12.5696 16.4605 12.64 16.3902C12.7103 16.3198 12.7498 16.2245 12.7498 16.125C12.7494 15.6772 12.8349 15.2335 13.0015 14.8179L13.4709 13.6445L14.2678 11.7849C14.4983 12.0043 14.7497 12.2005 15.0185 12.3708C14.2615 14.2322 13.8731 16.2229 13.8748 18.2323ZM9.57059 10.7964L9.25507 12.2687L8.782 11.165C8.80853 11.1295 8.83465 11.0935 8.86033 11.0572C9.10473 10.9858 9.34312 10.8952 9.57327 10.7863C9.57242 10.7899 9.5713 10.7931 9.57059 10.7964ZM13.6394 11.0574C13.665 11.0937 13.6911 11.1296 13.7177 11.1652L13.2447 12.269L12.9291 10.7967C12.9284 10.7933 12.9273 10.7901 12.9265 10.7867C13.1566 10.8956 13.3949 10.9861 13.6392 11.0574H13.6394ZM17.6249 12.375C16.943 12.3756 16.2716 12.2068 15.671 11.884C15.0704 11.5611 14.5594 11.0942 14.1837 10.5251C14.183 10.524 14.1822 10.5231 14.1815 10.5221C13.8641 10.0439 13.6512 9.50396 13.5569 8.93775C13.549 8.88892 13.5315 8.84213 13.5055 8.80007C13.4795 8.75802 13.4454 8.72152 13.4053 8.69269C13.3651 8.66385 13.3196 8.64325 13.2714 8.63207C13.2232 8.62089 13.1733 8.61934 13.1246 8.62753C13.0758 8.63571 13.0291 8.65347 12.9872 8.67976C12.9453 8.70606 12.9091 8.74038 12.8805 8.78075C12.8519 8.82112 12.8316 8.86674 12.8208 8.91499C12.8099 8.96324 12.8087 9.01315 12.8172 9.06187C12.8724 9.392 12.9617 9.71552 13.0836 10.0272C13.0661 10.0178 13.0483 10.009 13.0309 9.99951C12.967 9.96472 12.8943 9.94926 12.8218 9.95502C12.7493 9.96078 12.68 9.98751 12.6224 10.0319C12.2291 10.3353 11.7465 10.4998 11.2498 10.4998C10.7531 10.4998 10.2704 10.3353 9.87711 10.0319C9.81952 9.98751 9.75024 9.96078 9.67772 9.95502C9.6052 9.94926 9.53257 9.96472 9.46869 9.99951C9.4512 10.0089 9.43348 10.018 9.4159 10.0272C9.53788 9.71552 9.62717 9.392 9.68234 9.06187C9.69085 9.01315 9.68964 8.96324 9.67878 8.91499C9.66791 8.86674 9.64762 8.82112 9.61905 8.78075C9.59048 8.74038 9.55421 8.70606 9.51233 8.67976C9.47044 8.65347 9.42377 8.63571 9.375 8.62753C9.32622 8.61934 9.27631 8.62089 9.22814 8.63207C9.17996 8.64325 9.13447 8.66385 9.09429 8.69269C9.05411 8.72152 9.02003 8.75802 8.99401 8.80007C8.968 8.84213 8.95055 8.88892 8.94269 8.93775C8.84833 9.50396 8.63546 10.0439 8.31803 10.5221C8.31733 10.5231 8.31653 10.524 8.31583 10.5251C8.01103 10.9847 7.61718 11.3785 7.15754 11.6833C6.6979 11.988 6.18182 12.1975 5.63982 12.2994C5.09781 12.4012 4.54088 12.3934 4.00197 12.2762C3.46305 12.1591 2.95309 11.9351 2.50225 11.6175C2.0514 11.2999 1.66882 10.8951 1.37713 10.4271C1.08544 9.95905 0.890567 9.43728 0.804027 8.89262C0.717488 8.34797 0.741043 7.79149 0.8733 7.2561C1.00556 6.72071 1.24383 6.21727 1.57403 5.77556C1.95866 5.26572 2.45526 4.85105 3.02553 4.56351C2.99225 4.65149 2.97251 4.74402 2.96698 4.83792C2.96211 4.88693 2.96694 4.93641 2.9812 4.98355C2.99545 5.03069 3.01885 5.07456 3.05006 5.11265C3.08127 5.15075 3.11968 5.18232 3.16309 5.20558C3.20651 5.22883 3.25408 5.2433 3.30308 5.24817C3.31569 5.24939 3.32821 5.25004 3.34058 5.25004C3.43356 5.24994 3.52318 5.2153 3.59206 5.15285C3.66093 5.0904 3.70416 5.00459 3.71334 4.91208C3.74216 4.6226 3.80853 4.3381 3.91078 4.06575C3.92292 4.03336 3.95578 3.95208 3.95939 3.94345C4.27975 3.18028 4.86942 2.56147 5.61625 2.20466C6.36308 1.84786 7.215 1.77797 8.01001 2.00826C8.0356 2.01567 8.11276 2.03845 8.13188 2.04483C8.64241 2.21457 9.10518 2.50345 9.4819 2.88754C9.51631 2.923 9.55738 2.95131 9.60276 2.97084C9.64814 2.99038 9.69694 3.00075 9.74634 3.00137C9.79574 3.00199 9.84478 2.99284 9.89063 2.97444C9.93649 2.95605 9.97825 2.92878 10.0135 2.8942C10.0488 2.85961 10.0769 2.8184 10.0962 2.77292C10.1155 2.72744 10.1257 2.6786 10.126 2.6292C10.1264 2.57979 10.117 2.5308 10.0984 2.48504C10.0798 2.43928 10.0523 2.39765 10.0175 2.36254C9.678 2.01686 9.28061 1.73327 8.84332 1.52461C9.54464 1.02098 10.3863 0.750086 11.2497 0.750086C12.1131 0.750086 12.9548 1.02098 13.6561 1.52461C13.2189 1.73326 12.8215 2.01684 12.482 2.3625C12.413 2.43364 12.3749 2.52922 12.3761 2.62834C12.3774 2.72746 12.4178 2.82206 12.4886 2.89145C12.5594 2.96084 12.6548 2.99938 12.7539 2.99864C12.853 2.9979 12.9478 2.95794 13.0176 2.8875C13.3943 2.5034 13.8571 2.21453 14.3676 2.04478C14.3868 2.0384 14.464 2.01562 14.4895 2.00822C15.3083 1.77099 16.1866 1.85252 16.9478 2.2364C17.709 2.62029 18.2967 3.27809 18.5927 4.07756C18.6028 4.10479 18.6355 4.19606 18.6484 4.23731C18.7173 4.45689 18.7634 4.68297 18.7862 4.91198C18.7953 5.00452 18.8386 5.09034 18.9074 5.15281C18.9763 5.21527 19.066 5.2499 19.159 5.25C19.1713 5.25 19.1839 5.24934 19.1965 5.24812C19.2455 5.24326 19.293 5.22879 19.3365 5.20555C19.3799 5.1823 19.4183 5.15073 19.4495 5.11264C19.4807 5.07455 19.5041 5.03068 19.5184 4.98355C19.5326 4.93641 19.5375 4.88693 19.5326 4.83792C19.5241 4.74899 19.5105 4.66062 19.492 4.57322C20.0547 4.8603 20.5448 5.27144 20.9254 5.77561C21.4631 6.48823 21.7527 7.35729 21.7499 8.25C21.7487 9.34363 21.3137 10.3921 20.5403 11.1654C19.767 11.9388 18.7185 12.3738 17.6249 12.375Z" fill="#7F3615"/>
</svg>
