<svg width="17" height="17" viewBox="0 0 17 17" fill="none" xmlns="http://www.w3.org/2000/svg">
<path d="M11.8333 12.3479L16 8.18125M16 8.18125L11.8333 4.01458M16 8.18125H6M8.5 12.3479C8.5 12.5942 8.5 12.7174 8.49084 12.8241C8.39569 13.9329 7.57905 14.8453 6.48753 15.0623C6.38252 15.0832 6.26001 15.0968 6.01529 15.124L5.16412 15.2186C3.8854 15.3606 3.24601 15.4317 2.73805 15.2691C2.06078 15.0524 1.50785 14.5575 1.21765 13.9083C1 13.4214 1 12.7781 1 11.4915V4.87099C1 3.58438 1 2.94108 1.21765 2.45418C1.50785 1.80498 2.06078 1.31008 2.73805 1.09335C3.24601 0.930803 3.88538 1.00184 5.16412 1.14393L6.01529 1.2385C6.2601 1.2657 6.3825 1.2793 6.48753 1.30018C7.57905 1.51721 8.39569 2.42961 8.49084 3.53842C8.5 3.64511 8.5 3.76826 8.5 4.01458" stroke="#EF1A26" stroke-width="2" stroke-linecap="round" stroke-linejoin="round"/>
</svg>
