<svg width="23" height="23" viewBox="0 0 23 23" fill="none" xmlns="http://www.w3.org/2000/svg">
<path d="M22.1317 14.625H18.7962C19.2946 13.5698 19.5519 12.417 19.5494 11.25C19.5494 7.05 16.2514 3.57337 12.0025 3.06431V0.375C12.0025 0.275544 11.963 0.180161 11.8927 0.109835C11.8224 0.0395088 11.727 0 11.6275 0H10.1744C10.0749 0 9.97955 0.0395088 9.90923 0.109835C9.8389 0.180161 9.79939 0.275544 9.79939 0.375V1.545L8.73064 1.68211L6.55822 1.959C4.90266 2.16696 3.39245 3.0094 2.34575 4.30884L0.0833782 7.10691C0.0338983 7.16811 0.00492943 7.24333 0.00057467 7.32191C-0.00378009 7.4005 0.0167001 7.47846 0.0591143 7.54476C0.101529 7.61105 0.163727 7.66232 0.236899 7.69131C0.310071 7.72029 0.390508 7.72552 0.466816 7.70625L3.58714 6.91814C2.67924 8.31258 2.23175 9.95675 2.30774 11.619C2.38373 13.2812 2.97936 14.8777 4.01071 16.1835C5.08492 17.5551 6.55146 18.567 8.21507 19.0844C8.51724 19.5358 8.86718 19.9533 9.25883 20.3297C10.7203 21.7359 12.668 22.5105 14.7432 22.5105C16.8184 22.5105 18.7663 21.736 20.2276 20.3297C20.9494 19.6426 21.5237 18.8156 21.9155 17.8994C22.3074 16.9831 22.5085 15.9966 22.5067 15C22.5067 14.9005 22.4672 14.8052 22.3969 14.7348C22.3265 14.6645 22.2311 14.625 22.1317 14.625ZM10.9526 18.6697C10.0448 17.802 9.49236 16.6276 9.40283 15.375H13.9243L11.4469 19.0913C11.2737 18.961 11.1086 18.8201 10.9526 18.6697ZM14.625 15.676L17.2352 19.5913C16.4311 19.9914 15.5425 20.1919 14.6445 20.1758C13.7465 20.1597 12.8656 19.9275 12.0764 19.4989L14.625 15.676ZM17.88 19.2066L15.3257 15.375H20.0838C19.9942 16.6276 19.4418 17.802 18.534 18.6697C18.3306 18.8657 18.1119 19.0452 17.88 19.2066ZM10.5494 0.75H11.2525V3H10.5494V0.75ZM9.79939 3.07031C9.30742 3.13173 8.82145 3.23418 8.34655 3.37659L8.9953 2.40431L9.79958 2.30119L9.79939 3.07031ZM7.49136 3.30703L7.22778 3.70214C7.19628 3.74934 7.16371 3.79589 7.1308 3.84234C6.69933 4.04521 6.28522 4.28312 5.89264 4.55367L5.91608 4.29844L7.49136 3.30703ZM6.65296 2.703L7.14196 2.64066L4.67952 4.19063C4.65139 4.17619 3.73011 3.969 3.73011 3.969C4.56403 3.2774 5.57803 2.8382 6.65296 2.703ZM2.92878 4.78036C2.98007 4.71695 3.0326 4.65488 3.08638 4.59413C3.09332 4.59609 3.10016 4.59825 3.10728 4.59984L3.79053 4.74984L2.08621 5.82263L2.92878 4.78036ZM3.87097 6.07294L2.5775 6.39966L5.11677 4.8015L5.08119 5.18766C4.81428 5.42315 4.56246 5.67522 4.32721 5.94234C4.20102 5.98214 3.98539 6.04406 3.87088 6.07294H3.87097ZM4.60175 15.7219C3.59551 14.4486 3.04853 12.8729 3.04939 11.25C3.04939 7.1145 6.58208 3.75 10.9244 3.75C15.2667 3.75 18.7994 7.1145 18.7994 11.25C18.8019 12.4258 18.5138 13.584 17.9607 14.6216C17.96 14.6227 17.9597 14.6239 17.9591 14.625H7.35467C7.25522 14.625 7.15984 14.6645 7.08951 14.7348C7.01918 14.8052 6.97967 14.9005 6.97967 15C6.97754 16.0596 7.20509 17.1071 7.64666 18.0703C6.45381 17.5502 5.40787 16.7435 4.60175 15.7219ZM19.7076 19.7894C18.3867 21.0606 16.6236 21.7607 14.7433 21.7607C12.8629 21.7607 11.1 21.0606 9.77891 19.7894C8.56203 18.6312 7.8329 17.0524 7.74027 15.375H8.65152C8.74136 16.8316 9.37713 18.2008 10.432 19.2094C11.58 20.3167 13.1111 20.9266 14.7433 20.9266C16.3754 20.9266 17.9066 20.3168 19.0547 19.2094C20.1095 18.2008 20.7453 16.8316 20.8351 15.375H21.7463C21.6536 17.0524 20.9245 18.6312 19.7076 19.7894Z" fill="#7F3615"/>
</svg>
