<svg width="23" height="23" viewBox="0 0 23 23" fill="none" xmlns="http://www.w3.org/2000/svg">
<path d="M22.3736 7.55537C21.7874 5.98002 20.7311 4.76323 19.319 4.03638C19.0487 3.9003 18.8193 3.69487 18.6543 3.44109C18.4894 3.18731 18.3948 2.89428 18.3802 2.59195L18.374 2.36226C18.3718 2.27867 18.3418 2.1982 18.2886 2.13365C18.2355 2.06911 18.1622 2.02418 18.0806 2.00601C17.999 1.98785 17.9136 1.99748 17.8381 2.03339C17.7626 2.0693 17.7013 2.12942 17.6638 2.2042L17.561 2.40914C17.4195 2.67677 17.2095 2.90203 16.9524 3.0619C16.6953 3.22176 16.4004 3.3105 16.0978 3.31904C14.4107 3.38166 12.87 4.12835 11.6728 5.37842C11.1446 4.16577 10.3183 3.10639 9.2708 2.29881C8.22327 1.49123 6.98852 0.961674 5.6814 0.759398L0.80757 0.00442064C0.744722 -0.00531572 0.680431 0.00109185 0.620741 0.0230408C0.561051 0.0449898 0.507924 0.0817591 0.466354 0.129891C0.424785 0.178024 0.39614 0.235937 0.383113 0.298187C0.370085 0.360436 0.373103 0.424977 0.391882 0.485739L1.8488 5.19753C2.45122 7.14616 3.78861 8.7837 5.57762 9.76321C5.19786 9.93062 4.83202 10.128 4.48355 10.3534C3.07341 11.268 2.11529 12.5635 1.71277 14.0999C1.63869 14.3934 1.48799 14.662 1.27609 14.8781C1.06418 15.0943 0.798659 15.2504 0.506679 15.3303L0.284211 15.3861C0.20304 15.4063 0.130974 15.4531 0.0794742 15.5191C0.0279746 15.585 0 15.6663 0 15.7499C0 15.8336 0.0279746 15.9148 0.0794742 15.9808C0.130974 16.0467 0.20304 16.0935 0.284211 16.1138L0.506679 16.1695C0.798654 16.2495 1.06417 16.4055 1.27608 16.6217C1.48798 16.8379 1.63869 17.1064 1.71277 17.3999C2.11529 18.9363 3.07341 20.2318 4.48355 21.1464C5.84888 22.032 7.54037 22.5 9.37515 22.5C12.5273 22.5 15.1411 21.157 16.4098 18.9435C16.4168 18.9435 16.4239 18.9441 16.4305 18.9441C16.5549 18.9441 16.6791 18.934 16.8018 18.914C19.6366 18.452 21.8703 16.0419 22.6314 12.6242C23.0303 10.8333 22.9411 9.08051 22.3736 7.55537ZM11.124 6.01813C10.6832 6.59571 10.3162 7.22598 10.0314 7.89437L9.72395 7.62887L9.80209 3.81901C10.3725 4.46581 10.8204 5.21098 11.124 6.01813ZM2.88699 5.81929L5.75574 5.19294L6.7937 6.08929L3.34595 6.66919C3.17384 6.39664 3.0205 6.11268 2.88699 5.81929ZM3.60418 3.33488L2.14201 3.60676L1.49466 1.5132L3.60418 3.33488ZM1.98484 0.945541L4.15023 1.28103L4.09435 2.76727L1.98484 0.945541ZM2.56534 4.97595L2.36499 4.32803L4.33107 3.96269L5.0461 4.58023L2.61005 5.11212C2.59501 5.06698 2.57945 5.02165 2.56534 4.97595ZM7.35545 2.0263L7.28377 5.52167L6.24582 4.62532L6.44776 1.69602C6.75748 1.78534 7.06075 1.89569 7.35545 2.0263ZM8.09781 2.4082C8.43945 2.61095 8.76349 2.842 9.06652 3.09891L8.98684 6.9923L8.02121 6.15824L8.09781 2.4082ZM5.70779 1.52497L5.53632 4.01256L4.82124 3.39502L4.89624 1.39667L5.56655 1.50055C5.61385 1.50786 5.66077 1.51667 5.70779 1.52497ZM3.8319 7.34804L7.53071 6.72591L8.49634 7.55992L4.65615 8.20586C4.35789 7.94347 4.08218 7.65653 3.8319 7.34804ZM5.4766 8.82846L9.23363 8.19653L9.74645 8.63941C9.70613 8.7592 9.66793 8.8806 9.63184 9.00364C9.54657 9.00167 9.46121 8.99984 9.37515 8.99984C8.41956 8.99524 7.46848 9.13106 6.55238 9.40297C6.17792 9.2428 5.81798 9.05058 5.4766 8.82846ZM4.8917 10.9827C5.4332 10.6345 6.01834 10.3593 6.63193 10.1644C6.6429 10.1614 6.65354 10.1576 6.66418 10.1536C7.5418 9.88083 8.45614 9.74466 9.37515 9.74985C12.5634 9.74985 15.1345 11.2258 16.0853 13.6017C16.2094 13.9074 16.2317 14.245 16.1488 14.5645C16.0659 14.8839 15.8823 15.1681 15.6252 15.3749H15.2471C15.3463 15.0935 15.3885 14.7952 15.3714 14.4973C15.3543 14.1995 15.2782 13.908 15.1475 13.6397C15.0168 13.3715 14.8342 13.132 14.6101 12.9349C14.386 12.7379 14.1251 12.5874 13.8423 12.4921C13.4944 12.02 12.9668 11.6467 12.3416 11.433C11.9661 11.3034 11.5704 11.242 11.1733 11.2517C10.6788 10.778 9.92738 10.4999 9.12156 10.4999C8.29726 10.4999 7.53249 10.7896 7.03871 11.2819C6.74746 11.3082 6.46087 11.3723 6.18615 11.4725C5.23388 11.8177 4.53929 12.5231 4.3562 13.3093C3.95244 13.4826 3.60858 13.7708 3.36746 14.1381C3.12633 14.5054 2.99859 14.9355 3.00015 15.3749H1.83793C2.12577 15.0692 2.33221 14.6962 2.4383 14.2899C2.79263 12.9374 3.64098 11.7936 4.8917 10.9827ZM8.14013 18.4849L7.77357 18.1182C7.46051 17.8041 7.03878 17.6221 6.59546 17.61L4.88748 17.5537C4.86116 17.553 4.83483 17.5549 4.80891 17.5596C4.80657 17.5588 4.80423 17.5576 4.80202 17.5569C4.49646 17.4623 4.22932 17.2721 4.03996 17.0144C3.85059 16.7566 3.74901 16.4448 3.75015 16.1249H14.4248C14.5553 16.3515 14.6244 16.6082 14.6251 16.8697C14.6258 17.1312 14.5582 17.3883 14.4289 17.6156L12.0872 17.6215C11.7654 17.6217 11.4501 17.7118 11.1768 17.8815C10.9034 18.0512 10.6828 18.2938 10.5398 18.582C10.5173 18.6261 10.5037 18.6742 10.4999 18.7235C10.4961 18.7729 10.5022 18.8225 10.5176 18.8695C10.5331 18.9165 10.5577 18.96 10.5901 18.9975C10.6224 19.0349 10.6619 19.0656 10.7061 19.0877C10.7504 19.1099 10.7986 19.123 10.848 19.1264C10.8973 19.1299 10.9469 19.1235 10.9938 19.1076C11.0407 19.0918 11.084 19.0669 11.1212 19.0342C11.1584 19.0016 11.1887 18.9619 11.2105 18.9174C11.2918 18.7537 11.4171 18.6158 11.5724 18.5194C11.7277 18.4229 11.9068 18.3717 12.0896 18.3715L13.411 18.3681C13.3646 18.3969 13.3249 18.4356 13.2949 18.4813C13.0455 18.8633 12.6095 19.1825 12.0989 19.357C11.7649 19.4738 11.4102 19.5191 11.0576 19.4898C10.9984 19.4843 10.9387 19.4929 10.8835 19.5149C10.8282 19.537 10.779 19.5719 10.74 19.6168C10.3996 20.0072 9.7794 20.2496 9.12156 20.2496C8.45799 20.2496 7.83516 20.004 7.49612 19.6087C7.46248 19.5695 7.42111 19.5377 7.37459 19.5152C7.32807 19.4927 7.27741 19.4801 7.22579 19.4781C6.95792 19.4669 6.69341 19.4141 6.44171 19.3218C5.87874 19.1177 5.41918 18.7346 5.1992 18.314L6.57263 18.3592C6.82502 18.3658 7.06519 18.4692 7.24346 18.648L7.61002 19.0146C7.6447 19.05 7.68606 19.0783 7.73172 19.0976C7.77738 19.117 7.82643 19.1271 7.87603 19.1274C7.92563 19.1277 7.97479 19.1181 8.02067 19.0993C8.06655 19.0804 8.10823 19.0527 8.1433 19.0176C8.17838 18.9825 8.20615 18.9409 8.22501 18.895C8.24386 18.8491 8.25343 18.7999 8.25316 18.7503C8.25288 18.7007 8.24277 18.6517 8.22341 18.606C8.20405 18.5604 8.17583 18.519 8.14037 18.4843L8.14013 18.4849ZM4.80202 13.943C4.80446 13.9422 4.80671 13.941 4.8091 13.9402C4.83076 13.9441 4.85272 13.9461 4.87473 13.9462H4.88729L6.59354 13.89C7.03755 13.8782 7.46006 13.6963 7.77366 13.3817L8.14023 13.0151C8.17569 12.9804 8.20391 12.9391 8.22327 12.8934C8.24263 12.8477 8.25274 12.7987 8.25302 12.7491C8.25329 12.6995 8.24372 12.6503 8.22486 12.6044C8.20601 12.5586 8.17824 12.5169 8.14316 12.4818C8.10809 12.4468 8.06641 12.419 8.02053 12.4001C7.97465 12.3813 7.92549 12.3717 7.87589 12.372C7.82629 12.3723 7.77724 12.3824 7.73158 12.4018C7.68592 12.4212 7.64456 12.4494 7.60988 12.4849L7.24332 12.8514C7.06455 13.0305 6.82368 13.134 6.57066 13.1403L5.1991 13.1855C5.41913 12.765 5.87879 12.3818 6.44162 12.1776C6.69332 12.0853 6.95782 12.0325 7.2257 12.0213C7.27732 12.0193 7.32798 12.0067 7.3745 11.9842C7.42102 11.9618 7.46239 11.9299 7.49602 11.8907C7.83516 11.4954 8.45799 11.2499 9.12156 11.2499C9.7794 11.2499 10.3996 11.4924 10.74 11.8827C10.7791 11.9275 10.8283 11.9623 10.8835 11.9844C10.9387 12.0065 10.9984 12.0151 11.0576 12.0096C11.4102 11.9804 11.7649 12.0257 12.0989 12.1425C12.6095 12.317 13.0455 12.6362 13.2949 13.0182C13.3249 13.0639 13.3646 13.1025 13.411 13.1314L12.0901 13.128C11.9072 13.1278 11.728 13.0766 11.5726 12.9802C11.4172 12.8837 11.2918 12.7458 11.2105 12.582C11.1656 12.4939 11.0876 12.4271 10.9936 12.3961C10.8996 12.3652 10.7972 12.3727 10.7087 12.417C10.6202 12.4612 10.5528 12.5387 10.5212 12.6324C10.4895 12.7262 10.4962 12.8286 10.5398 12.9175C10.6828 13.2058 10.9035 13.4484 11.177 13.6181C11.4505 13.7878 11.7659 13.8778 12.0877 13.878L14.4289 13.8839C14.5582 14.1112 14.6258 14.3683 14.6251 14.6298C14.6244 14.8912 14.5553 15.148 14.4248 15.3745L3.75015 15.3749C3.74901 15.0551 3.85059 14.7433 4.03996 14.4855C4.22932 14.2277 4.49646 14.0375 4.80202 13.943ZM9.37515 21.75C7.68554 21.75 6.1352 21.3237 4.8917 20.5172C3.64098 19.7062 2.79263 18.5625 2.4383 17.2099C2.33221 16.8037 2.12577 16.4306 1.83793 16.1249H3.00015C2.99859 16.5643 3.12633 16.9944 3.36746 17.3617C3.60858 17.729 3.95244 18.0173 4.3562 18.1905C4.53929 18.9767 5.23388 19.6822 6.18615 20.0273C6.46087 20.1276 6.74746 20.1916 7.03871 20.2179C7.53226 20.7102 8.29726 21 9.12156 21C9.92738 21 10.6788 20.7219 11.1731 20.2482C11.5702 20.2581 11.9659 20.1968 12.3414 20.0672C12.9666 19.8535 13.4942 19.4801 13.8421 19.0081C14.1249 18.9128 14.3859 18.7622 14.61 18.5652C14.8341 18.3682 15.0169 18.1286 15.1476 17.8603C15.2783 17.5921 15.3544 17.3005 15.3715 17.0026C15.3886 16.7047 15.3463 16.4064 15.2471 16.1249H15.6252C15.8823 16.3318 16.0659 16.616 16.1488 16.9354C16.2317 17.2548 16.2094 17.5924 16.0853 17.8982C15.1345 20.2741 12.5634 21.75 9.37515 21.75ZM21.8994 12.4612C21.2164 15.528 19.2643 17.6972 16.7905 18.1534C16.889 17.9009 16.9422 17.633 16.9479 17.3621L17.8191 16.3546C18.0306 16.11 18.2291 15.8544 18.4138 15.589C18.47 15.5074 18.4916 15.4068 18.4739 15.3092C18.4561 15.2116 18.4005 15.1251 18.3191 15.0685C18.2377 15.0118 18.1372 14.9898 18.0395 15.0071C17.9419 15.0244 17.8551 15.0796 17.7981 15.1608C17.6284 15.4045 17.4461 15.6392 17.2518 15.8639L16.7665 16.4249C16.6602 16.1753 16.51 15.9467 16.3231 15.7499C16.6244 15.4321 16.8279 15.0342 16.9092 14.6039C16.9905 14.1735 16.9462 13.7289 16.7816 13.323C16.6246 12.9316 16.4275 12.5575 16.1933 12.2068L16.8892 9.08136C16.9003 9.03315 16.9018 8.98322 16.8935 8.93445C16.8852 8.88568 16.8673 8.83903 16.8409 8.79719C16.8145 8.75534 16.7801 8.71914 16.7397 8.69065C16.6992 8.66217 16.6536 8.64197 16.6053 8.63121C16.557 8.62046 16.5071 8.61936 16.4583 8.62799C16.4096 8.63662 16.3631 8.65481 16.3215 8.68149C16.2798 8.70818 16.2438 8.74285 16.2157 8.78349C16.1875 8.82414 16.1676 8.86996 16.1572 8.91832L15.5947 11.4449C14.855 10.6391 13.8961 10.0084 12.7805 9.58963C13.0013 8.92562 13.3036 8.29158 13.6805 7.70204C13.7071 7.66055 13.7252 7.61424 13.7338 7.56576C13.7424 7.51727 13.7415 7.46755 13.7309 7.41945C13.7203 7.37135 13.7004 7.3258 13.6722 7.2854C13.644 7.24501 13.6082 7.21056 13.5667 7.18402C13.5252 7.15748 13.4789 7.13938 13.4304 7.13074C13.3819 7.1221 13.3322 7.12309 13.2841 7.13367C13.236 7.14424 13.1904 7.16418 13.15 7.19236C13.1096 7.22054 13.0752 7.25639 13.0486 7.29788C12.6376 7.94097 12.3081 8.63264 12.0677 9.35699C11.5226 9.2057 10.9652 9.10281 10.402 9.04953C11.3307 6.10368 13.5401 4.16467 16.1259 4.06867C16.7457 4.04722 17.3353 3.7951 17.779 3.3617C17.9969 3.94244 18.4237 4.42092 18.9759 4.70341C20.2191 5.34322 21.1509 6.4199 21.6708 7.81708C22.1876 9.20609 22.2667 10.812 21.8994 12.4612Z" fill="#7F3615"/>
</svg>
